<?xml version="1.0" encoding="iso-8859-1"?>
<!-- Uploaded to: SVG Repo, www.svgrepo.com, Generator: SVG Repo Mixer Tools -->
<svg height="800px" width="800px" version="1.1" id="Layer_1" xmlns="http://www.w3.org/2000/svg" xmlns:xlink="http://www.w3.org/1999/xlink" 
	 viewBox="0 0 357.982 357.982" xml:space="preserve">
<g id="XMLID_13_">
	<g id="XMLID_16_">
		<path id="XMLID_19_" style="fill:#FCE98E;" d="M199.253,20.249l43.064,87.258l96.295,13.992
			c18.532,2.693,25.932,25.467,12.522,38.539l-69.68,67.921l16.449,95.906c3.166,18.457-16.207,32.533-32.783,23.818l-86.129-45.281
			l-86.129,45.281c-16.576,8.714-35.949-5.361-32.783-23.818l16.449-95.906l-69.68-67.921c-13.41-13.072-6.01-35.846,12.522-38.539
			l96.295-13.992l43.064-87.258C167.019,3.456,190.965,3.456,199.253,20.249z"/>
		<path id="XMLID_22_" style="fill:#FAE16E;" d="M338.613,121.499l-96.295-13.992l-43.064-87.258
			c-4.144-8.396-12.202-12.595-20.261-12.595v294.748l86.129,45.281c16.576,8.714,35.949-5.361,32.783-23.818l-16.449-95.906
			l69.68-67.921C364.544,146.966,357.145,124.192,338.613,121.499z"/>
	</g>
	<g id="XMLID_23_">
		<g id="XMLID_24_">
			<circle id="XMLID_25_" style="fill:#FFFFFF;" cx="178.992" cy="63.462" r="15.123"/>
			<circle id="XMLID_26_" style="fill:#FFFFFF;" cx="178.992" cy="124.479" r="15.123"/>
		</g>
		<g id="XMLID_27_">
			<g id="XMLID_28_">
				<circle id="XMLID_45_" style="fill:#FFFFFF;" cx="259.302" cy="294.521" r="15.123"/>
				<circle id="XMLID_44_" style="fill:#FFFFFF;" cx="216.156" cy="251.375" r="15.123"/>
			</g>
			<g id="XMLID_29_">
				<circle id="XMLID_42_" style="fill:#FFFFFF;" cx="98.682" cy="294.521" r="15.123"/>
				<circle id="XMLID_41_" style="fill:#FFFFFF;" cx="141.828" cy="251.375" r="15.123"/>
			</g>
		</g>
		<g id="XMLID_30_">
			<g id="XMLID_31_">
				<circle id="XMLID_38_" style="fill:#FFFFFF;" cx="110.477" cy="176.134" r="15.123"/>
				<circle id="XMLID_37_" style="fill:#FFFFFF;" cx="54.087" cy="152.825" r="15.123"/>
			</g>
			<g id="XMLID_71_">
				<circle id="XMLID_35_" style="fill:#FFFFFF;" cx="247.508" cy="176.134" r="15.123"/>
				<circle id="XMLID_34_" style="fill:#FFFFFF;" cx="303.898" cy="152.825" r="15.123"/>
			</g>
		</g>
	</g>
</g>
</svg>